<?xml version="1.0" standalone="no"?><!DOCTYPE svg PUBLIC "-//W3C//DTD SVG 1.1//EN" "http://www.w3.org/Graphics/SVG/1.1/DTD/svg11.dtd"><svg t="1578143230281" class="icon" viewBox="0 0 1024 1024" version="1.1" xmlns="http://www.w3.org/2000/svg" p-id="1572" xmlns:xlink="http://www.w3.org/1999/xlink" width="128" height="128"><defs><style type="text/css"></style></defs><path d="M79.56615 462.86190263L488.33092799 867.88751863c0.592494 0.592494 1.407046 0.779759 2.03330901 1.333368 0.147356 0.146333 0.18624201 0.37146 0.333598 0.518816 14.543228 14.358009 37.97694 14.284331 52.373835-0.225127L948.057377 460.78868363c14.396895-14.544251 14.290471-37.938054-0.220011-52.341089-7.218402-7.139607-16.657378-10.731412-26.061562-10.731412-9.511631 0-19.061125 3.665483-26.279526 10.957563l-379.226021 382.66433-384.59019199-381.037273c-7.218402-7.144724-16.616446-10.737552-26.05542201-10.737552-9.55051699 0-19.061125 3.665483-26.285666 10.957563C64.942081 425.02924863 65.056692 448.46500763 79.56615 462.86190263L79.56615 462.86190263zM79.56615 462.86190263" p-id="1573" fill="#B4B4B4"></path></svg>